<svg id="visual" viewBox="0 0 500 75" width="500" height="75" xmlns="http://www.w3.org/2000/svg" xmlns:xlink="http://www.w3.org/1999/xlink" version="1.1"><rect x="0" y="0" width="500" height="75" fill="#202731"></rect><path d="M0 61L13.8 58.7C27.7 56.3 55.3 51.7 83.2 49.3C111 47 139 47 166.8 49C194.7 51 222.3 55 250 56.3C277.7 57.7 305.3 56.3 333.2 55.5C361 54.7 389 54.3 416.8 55C444.7 55.7 472.3 57.3 486.2 58.2L500 59L500 0L486.2 0C472.3 0 444.7 0 416.8 0C389 0 361 0 333.2 0C305.3 0 277.7 0 250 0C222.3 0 194.7 0 166.8 0C139 0 111 0 83.2 0C55.3 0 27.7 0 13.8 0L0 0Z" fill="#a025d9"></path><path d="M0 43L13.8 44.2C27.7 45.3 55.3 47.7 83.2 46.5C111 45.3 139 40.7 166.8 38.8C194.7 37 222.3 38 250 40.2C277.7 42.3 305.3 45.7 333.2 45.8C361 46 389 43 416.8 42.2C444.7 41.3 472.3 42.7 486.2 43.3L500 44L500 0L486.2 0C472.3 0 444.7 0 416.8 0C389 0 361 0 333.2 0C305.3 0 277.7 0 250 0C222.3 0 194.7 0 166.8 0C139 0 111 0 83.2 0C55.3 0 27.7 0 13.8 0L0 0Z" fill="#a030e1"></path><path d="M0 31L13.8 30.3C27.7 29.7 55.3 28.3 83.2 29C111 29.7 139 32.3 166.8 32.8C194.7 33.3 222.3 31.7 250 31.5C277.7 31.3 305.3 32.7 333.2 34.2C361 35.7 389 37.3 416.8 36.3C444.7 35.3 472.3 31.7 486.2 29.8L500 28L500 0L486.2 0C472.3 0 444.7 0 416.8 0C389 0 361 0 333.2 0C305.3 0 277.7 0 250 0C222.3 0 194.7 0 166.8 0C139 0 111 0 83.2 0C55.3 0 27.7 0 13.8 0L0 0Z" fill="#a039e8"></path><path d="M0 23L13.8 23.5C27.7 24 55.3 25 83.2 24.3C111 23.7 139 21.3 166.8 20.7C194.7 20 222.3 21 250 21.3C277.7 21.7 305.3 21.3 333.2 22C361 22.7 389 24.3 416.8 24.3C444.7 24.3 472.3 22.7 486.2 21.8L500 21L500 0L486.2 0C472.3 0 444.7 0 416.8 0C389 0 361 0 333.2 0C305.3 0 277.7 0 250 0C222.3 0 194.7 0 166.8 0C139 0 111 0 83.2 0C55.3 0 27.7 0 13.8 0L0 0Z" fill="#a042ef"></path><path d="M0 8L13.8 8.2C27.7 8.3 55.3 8.7 83.2 9.3C111 10 139 11 166.8 11.5C194.7 12 222.3 12 250 12C277.7 12 305.3 12 333.2 11.5C361 11 389 10 416.8 9.2C444.7 8.3 472.3 7.7 486.2 7.3L500 7L500 0L486.2 0C472.3 0 444.7 0 416.8 0C389 0 361 0 333.2 0C305.3 0 277.7 0 250 0C222.3 0 194.7 0 166.8 0C139 0 111 0 83.2 0C55.3 0 27.7 0 13.8 0L0 0Z" fill="#a04af6"></path></svg>